<svg xmlns="http://www.w3.org/2000/svg" xmlns:xlink="http://www.w3.org/1999/xlink"
    viewBox="0 0 100 100">
    <path fill-rule="evenodd" fill="#000" transform="translate(7, 12)"
        d="M85.780,55.195 C85.424,56.070 84.453,56.798 83.282,56.057 C80.523,54.311 76.931,52.962 74.590,52.972 C69.507,52.995 63.163,54.001 57.231,55.246 C57.231,55.246 57.231,55.245 57.231,55.245 L57.230,55.246 C57.231,55.246 57.231,55.246 57.231,55.246 C56.642,59.438 55.525,63.071 54.099,65.828 C53.576,66.840 51.874,66.985 50.035,66.307 C37.629,61.735 44.871,64.194 31.212,60.292 C30.225,60.011 29.606,58.995 29.940,58.834 C32.944,57.392 36.849,55.747 41.209,54.170 L41.209,43.256 C40.606,43.587 40.005,43.903 39.410,44.193 C38.578,44.600 38.022,44.103 37.884,43.724 C37.758,43.377 38.060,42.836 38.370,42.635 C39.391,41.977 40.335,41.373 41.209,40.821 L41.209,30.420 C41.196,30.427 41.184,30.434 41.171,30.441 C40.522,30.795 39.348,31.245 38.059,31.487 C37.458,31.600 36.505,31.544 36.388,31.549 C36.356,31.550 36.048,31.541 35.821,31.443 C35.736,31.406 35.664,31.360 35.602,31.297 C35.532,31.225 35.479,31.138 35.449,31.042 C35.427,30.974 35.418,30.872 35.435,30.707 C35.462,30.455 35.482,30.361 35.596,30.250 C35.740,30.111 35.843,30.092 36.024,30.070 C36.423,30.021 37.721,29.881 38.331,29.745 C39.421,29.502 40.030,29.196 41.040,28.587 C41.092,28.556 41.149,28.522 41.209,28.487 L41.209,5.748 C41.209,4.316 41.149,3.620 40.749,2.563 C40.556,2.054 40.271,1.878 40.010,1.199 C39.802,0.660 40.430,-0.091 41.335,0.009 C43.027,0.197 45.910,2.535 45.910,5.571 L45.910,25.969 C46.492,25.668 47.051,25.381 47.543,25.131 C49.393,24.190 52.571,22.913 53.141,22.668 C55.170,21.796 56.669,21.298 57.901,21.205 C58.421,21.166 58.613,21.186 58.713,21.185 C58.906,21.183 59.071,21.209 59.226,21.239 C59.647,21.321 59.968,21.507 60.079,21.619 C60.277,21.818 60.465,22.197 60.433,22.849 C60.377,23.971 59.591,24.809 59.418,24.987 C54.090,30.459 51.799,33.204 51.720,33.291 C51.702,33.310 51.637,33.365 51.587,33.405 C51.509,33.470 51.453,33.507 51.383,33.503 C51.275,33.496 51.193,33.390 51.149,33.312 C51.039,33.116 51.088,32.901 51.110,32.810 C51.167,32.573 51.331,32.235 51.379,32.136 C51.807,31.256 53.347,29.238 54.691,27.739 C56.027,26.248 56.809,25.455 57.972,24.227 C58.162,24.026 58.377,23.825 58.476,23.656 C58.568,23.499 58.612,23.288 58.595,23.175 C58.576,23.052 58.503,22.978 58.481,22.952 C58.280,22.707 57.381,22.936 57.178,23.002 C55.749,23.471 53.021,24.545 50.491,25.705 C48.791,26.483 47.328,27.195 45.910,27.919 L45.910,37.963 C48.954,36.225 50.604,35.619 51.726,35.759 C55.675,36.249 56.989,39.775 57.198,41.301 C57.577,44.072 57.727,46.767 57.685,49.334 C57.685,49.334 57.685,49.334 57.685,49.334 L57.685,49.334 C57.685,49.334 57.685,49.334 57.685,49.334 C69.979,46.645 81.843,46.437 85.871,53.170 C85.975,53.345 86.057,54.513 85.780,55.195 ZM48.950,63.019 C49.974,61.410 50.703,59.148 51.214,56.612 L51.214,56.612 C44.139,58.330 38.758,60.010 38.758,60.010 C44.614,61.389 46.425,62.110 48.950,63.019 ZM52.168,39.458 C52.118,38.568 51.555,38.200 51.256,38.272 C49.592,38.672 47.777,39.559 45.910,40.590 L45.910,52.558 C47.900,51.913 49.946,51.298 52.013,50.733 L52.013,50.733 C52.366,46.500 52.326,42.274 52.168,39.458 ZM34.685,27.966 C33.751,29.193 32.831,30.456 31.915,31.745 C32.764,35.200 34.310,43.074 33.700,50.814 C33.669,51.216 33.197,53.342 33.098,53.578 C32.853,54.160 32.517,54.558 32.266,54.767 C31.901,55.072 31.422,55.295 30.850,55.379 C30.161,55.480 29.412,55.342 28.802,54.939 C28.477,54.725 28.202,54.409 28.104,54.280 C27.437,53.398 26.761,52.020 26.195,51.262 C25.867,50.824 25.210,49.859 25.013,49.477 C24.995,49.441 24.930,49.277 24.915,49.127 C24.895,48.913 24.953,48.771 25.003,48.715 C25.067,48.644 25.187,48.585 25.404,48.590 C26.116,48.609 26.802,49.280 26.962,49.441 C27.382,49.862 27.761,50.332 28.101,50.843 L28.207,45.767 C28.258,44.447 28.159,42.306 28.082,40.987 C28.019,39.902 27.914,38.824 27.765,37.749 C26.985,38.896 26.201,40.053 25.408,41.214 C23.835,43.516 20.741,47.790 18.377,51.146 C15.722,54.916 12.230,59.801 10.687,62.204 C8.941,64.920 6.832,67.621 5.582,69.799 C4.436,71.798 2.784,73.195 1.979,74.571 C1.769,74.931 1.007,75.572 0.535,75.905 C0.461,75.957 0.349,76.026 0.244,75.990 C0.036,75.920 -0.025,75.469 0.009,74.664 C0.027,74.255 0.084,73.930 0.185,73.622 C0.245,73.436 0.314,73.277 0.389,73.127 C0.675,72.557 1.250,71.451 1.469,71.109 C1.884,70.458 3.138,68.356 3.935,67.227 C6.029,64.258 8.207,60.759 10.502,57.461 C13.818,52.697 17.810,46.800 20.310,43.291 C24.007,38.104 27.836,32.887 31.399,28.269 C33.733,25.243 36.053,22.315 38.460,19.360 L38.458,23.166 C37.167,24.753 35.930,26.328 34.685,27.966 Z" />
</svg>