<svg
        xmlns="http://www.w3.org/2000/svg"
        xmlns:xlink="http://www.w3.org/1999/xlink"
        width="25px" height="21px">
    <path fill-rule="evenodd"  fill="rgb(60, 150, 255)"
          d="M23.947,15.251 C23.848,15.493 23.577,15.694 23.250,15.489 C22.480,15.007 21.477,14.634 20.823,14.637 C19.404,14.643 17.633,14.921 15.977,15.265 C15.977,15.265 15.977,15.265 15.977,15.265 L15.977,15.265 C15.977,15.265 15.977,15.265 15.977,15.265 C15.813,16.424 15.501,17.428 15.103,18.189 C14.957,18.469 14.482,18.509 13.968,18.322 C10.505,17.058 12.527,17.738 8.714,16.660 C8.438,16.582 8.265,16.301 8.358,16.257 C9.197,15.858 10.287,15.404 11.504,14.968 L11.504,11.952 C11.336,12.044 11.168,12.131 11.002,12.211 C10.770,12.324 10.615,12.186 10.576,12.082 C10.541,11.986 10.625,11.836 10.712,11.781 C10.997,11.599 11.260,11.432 11.504,11.279 L11.504,8.406 C11.501,8.408 11.497,8.410 11.494,8.411 C11.313,8.509 10.985,8.633 10.625,8.700 C10.457,8.732 10.191,8.716 10.159,8.717 C10.149,8.718 10.064,8.715 10.000,8.688 C9.976,8.678 9.956,8.665 9.939,8.648 C9.920,8.628 9.905,8.604 9.896,8.578 C9.890,8.559 9.888,8.530 9.893,8.485 C9.900,8.415 9.906,8.389 9.937,8.359 C9.978,8.320 10.006,8.315 10.057,8.309 C10.168,8.295 10.531,8.256 10.701,8.219 C11.005,8.152 11.175,8.067 11.457,7.899 C11.472,7.890 11.488,7.881 11.504,7.871 L11.504,1.588 C11.504,1.193 11.488,1.000 11.376,0.708 C11.322,0.568 11.242,0.519 11.170,0.331 C11.112,0.182 11.287,-0.025 11.540,0.003 C12.012,0.054 12.817,0.700 12.817,1.539 L12.817,7.176 C12.979,7.093 13.135,7.013 13.273,6.944 C13.789,6.684 14.676,6.331 14.836,6.263 C15.402,6.022 15.820,5.885 16.164,5.859 C16.310,5.848 16.363,5.854 16.391,5.854 C16.445,5.853 16.491,5.860 16.534,5.869 C16.652,5.891 16.741,5.943 16.772,5.974 C16.828,6.029 16.880,6.133 16.871,6.313 C16.856,6.624 16.636,6.855 16.588,6.904 C15.100,8.416 14.461,9.175 14.439,9.199 C14.434,9.204 14.415,9.219 14.402,9.230 C14.380,9.248 14.364,9.258 14.345,9.257 C14.314,9.255 14.291,9.226 14.279,9.205 C14.249,9.151 14.262,9.091 14.268,9.066 C14.284,9.001 14.330,8.907 14.344,8.880 C14.463,8.636 14.893,8.079 15.268,7.665 C15.641,7.253 15.859,7.034 16.184,6.694 C16.237,6.639 16.297,6.583 16.325,6.537 C16.351,6.493 16.363,6.435 16.358,6.403 C16.353,6.370 16.332,6.349 16.326,6.342 C16.270,6.274 16.019,6.337 15.962,6.356 C15.563,6.485 14.802,6.782 14.096,7.103 C13.621,7.318 13.213,7.514 12.817,7.715 L12.817,10.490 C13.666,10.010 14.127,9.842 14.440,9.881 C15.543,10.016 15.910,10.990 15.968,11.412 C16.074,12.178 16.116,12.923 16.104,13.632 C16.104,13.632 16.104,13.632 16.104,13.632 L16.104,13.632 C16.104,13.632 16.104,13.632 16.104,13.632 C19.536,12.889 22.848,12.831 23.973,14.692 C24.002,14.740 24.025,15.063 23.947,15.251 ZM13.666,17.413 C13.951,16.968 14.155,16.344 14.297,15.643 L14.297,15.643 C12.322,16.118 10.820,16.582 10.820,16.582 C12.455,16.963 12.960,17.162 13.666,17.413 ZM14.564,10.903 C14.550,10.657 14.393,10.555 14.309,10.575 C13.845,10.686 13.338,10.931 12.817,11.216 L12.817,14.523 C13.372,14.344 13.944,14.174 14.520,14.018 L14.520,14.018 C14.619,12.849 14.608,11.681 14.564,10.903 ZM9.683,7.727 C9.422,8.067 9.165,8.415 8.910,8.772 C9.147,9.726 9.578,11.902 9.408,14.041 C9.399,14.152 9.268,14.739 9.240,14.804 C9.172,14.965 9.078,15.075 9.008,15.133 C8.906,15.217 8.772,15.279 8.612,15.302 C8.420,15.330 8.211,15.292 8.041,15.181 C7.950,15.121 7.873,15.034 7.846,14.998 C7.660,14.755 7.471,14.374 7.313,14.165 C7.221,14.043 7.038,13.777 6.983,13.671 C6.978,13.661 6.960,13.616 6.956,13.575 C6.950,13.515 6.966,13.476 6.980,13.461 C6.998,13.441 7.032,13.425 7.092,13.426 C7.291,13.432 7.482,13.617 7.527,13.661 C7.644,13.778 7.750,13.907 7.845,14.049 L7.875,12.646 C7.889,12.281 7.861,11.690 7.840,11.325 C7.822,11.026 7.793,10.728 7.751,10.431 C7.534,10.748 7.315,11.067 7.093,11.388 C6.654,12.024 5.790,13.205 5.130,14.133 C4.389,15.174 3.414,16.524 2.983,17.188 C2.496,17.938 1.907,18.685 1.558,19.287 C1.238,19.839 0.777,20.225 0.553,20.605 C0.494,20.705 0.281,20.882 0.149,20.974 C0.129,20.988 0.097,21.007 0.068,20.997 C0.010,20.978 -0.007,20.853 0.003,20.631 C0.007,20.518 0.023,20.428 0.052,20.343 C0.069,20.292 0.088,20.248 0.109,20.206 C0.189,20.049 0.349,19.743 0.410,19.649 C0.526,19.469 0.876,18.888 1.098,18.576 C1.683,17.756 2.291,16.789 2.932,15.877 C3.857,14.561 4.972,12.931 5.670,11.962 C6.702,10.529 7.771,9.087 8.766,7.811 C9.417,6.975 10.065,6.166 10.737,5.349 L10.736,6.401 C10.376,6.840 10.031,7.275 9.683,7.727 Z"/>
</svg>
